<mxfile host="Electron" modified="2023-08-03T14:00:04.116Z" agent="Mozilla/5.0 (Windows NT 10.0; Win64; x64) AppleWebKit/537.36 (KHTML, like Gecko) draw.io/21.6.5 Chrome/114.0.5735.243 Electron/25.3.1 Safari/537.36" etag="Wgve97YUjbyFf8hhpgEO" version="21.6.5" type="device">
  <diagram name="Page-1" id="NksZ9QIiQ5LJtVxYfrio">
    <mxGraphModel dx="880" dy="511" grid="1" gridSize="10" guides="1" tooltips="1" connect="1" arrows="1" fold="1" page="1" pageScale="1" pageWidth="1169" pageHeight="827" math="0" shadow="0">
      <root>
        <mxCell id="0" />
        <mxCell id="1" parent="0" />
        <mxCell id="DxjHtmF49w2OF42L33zz-1" value="&lt;b&gt;C&lt;/b&gt;" style="swimlane;fontStyle=0;align=center;verticalAlign=middle;childLayout=stackLayout;horizontal=1;startSize=30;horizontalStack=0;resizeParent=1;resizeParentMax=0;resizeLast=0;collapsible=0;marginBottom=0;html=1;whiteSpace=wrap;" vertex="1" parent="1">
          <mxGeometry width="360" height="110" as="geometry" />
        </mxCell>
        <mxCell id="DxjHtmF49w2OF42L33zz-14" style="edgeStyle=orthogonalEdgeStyle;rounded=0;orthogonalLoop=1;jettySize=auto;html=1;exitX=1;exitY=0.5;exitDx=0;exitDy=0;entryX=0;entryY=0.5;entryDx=0;entryDy=0;endArrow=none;endFill=0;" edge="1" parent="DxjHtmF49w2OF42L33zz-1" source="DxjHtmF49w2OF42L33zz-6" target="DxjHtmF49w2OF42L33zz-13">
          <mxGeometry relative="1" as="geometry" />
        </mxCell>
        <mxCell id="DxjHtmF49w2OF42L33zz-15" value="2" style="edgeLabel;html=1;align=center;verticalAlign=middle;resizable=0;points=[];" vertex="1" connectable="0" parent="DxjHtmF49w2OF42L33zz-14">
          <mxGeometry x="-0.7143" y="-1" relative="1" as="geometry">
            <mxPoint x="-8" y="9" as="offset" />
          </mxGeometry>
        </mxCell>
        <mxCell id="DxjHtmF49w2OF42L33zz-16" value="2" style="edgeLabel;html=1;align=center;verticalAlign=middle;resizable=0;points=[];" vertex="1" connectable="0" parent="DxjHtmF49w2OF42L33zz-14">
          <mxGeometry x="0.7143" relative="1" as="geometry">
            <mxPoint x="3" y="10" as="offset" />
          </mxGeometry>
        </mxCell>
        <mxCell id="DxjHtmF49w2OF42L33zz-5" value="" style="swimlane;fontStyle=1;align=center;verticalAlign=top;horizontal=1;startSize=0;collapsible=0;marginBottom=0;html=1;strokeColor=none;fillColor=none;whiteSpace=wrap;" vertex="1" parent="DxjHtmF49w2OF42L33zz-1">
          <mxGeometry y="30" width="360" height="80" as="geometry" />
        </mxCell>
        <mxCell id="DxjHtmF49w2OF42L33zz-6" value="a: A" style="html=1;align=center;verticalAlign=middle;rotatable=0;whiteSpace=wrap;" vertex="1" parent="DxjHtmF49w2OF42L33zz-5">
          <mxGeometry width="80" height="40" relative="1" as="geometry">
            <mxPoint x="30" y="20" as="offset" />
          </mxGeometry>
        </mxCell>
        <mxCell id="DxjHtmF49w2OF42L33zz-13" value="b: B" style="html=1;align=center;verticalAlign=middle;rotatable=0;whiteSpace=wrap;" vertex="1" parent="DxjHtmF49w2OF42L33zz-5">
          <mxGeometry width="80" height="40" relative="1" as="geometry">
            <mxPoint x="250" y="20" as="offset" />
          </mxGeometry>
        </mxCell>
        <mxCell id="DxjHtmF49w2OF42L33zz-18" value="2" style="text;html=1;align=center;verticalAlign=middle;resizable=0;points=[];autosize=1;strokeColor=none;fillColor=none;" vertex="1" parent="1">
          <mxGeometry x="85" y="44" width="30" height="30" as="geometry" />
        </mxCell>
        <mxCell id="DxjHtmF49w2OF42L33zz-19" value="2" style="text;html=1;align=center;verticalAlign=middle;resizable=0;points=[];autosize=1;strokeColor=none;fillColor=none;" vertex="1" parent="1">
          <mxGeometry x="307" y="44" width="30" height="30" as="geometry" />
        </mxCell>
        <mxCell id="DxjHtmF49w2OF42L33zz-20" value="&lt;b&gt;&lt;u&gt;:C&lt;/u&gt;&lt;/b&gt;" style="swimlane;fontStyle=0;align=center;verticalAlign=middle;childLayout=stackLayout;horizontal=1;startSize=30;horizontalStack=0;resizeParent=1;resizeParentMax=0;resizeLast=0;collapsible=0;marginBottom=0;html=1;whiteSpace=wrap;" vertex="1" parent="1">
          <mxGeometry y="160" width="360" height="180" as="geometry" />
        </mxCell>
        <mxCell id="DxjHtmF49w2OF42L33zz-32" style="rounded=0;orthogonalLoop=1;jettySize=auto;html=1;exitX=1;exitY=0.75;exitDx=0;exitDy=0;entryX=0;entryY=0.25;entryDx=0;entryDy=0;endArrow=none;endFill=0;" edge="1" parent="DxjHtmF49w2OF42L33zz-20" source="DxjHtmF49w2OF42L33zz-25" target="DxjHtmF49w2OF42L33zz-29">
          <mxGeometry relative="1" as="geometry" />
        </mxCell>
        <mxCell id="DxjHtmF49w2OF42L33zz-24" value="" style="swimlane;fontStyle=1;align=center;verticalAlign=top;horizontal=1;startSize=0;collapsible=0;marginBottom=0;html=1;strokeColor=none;fillColor=none;whiteSpace=wrap;" vertex="1" parent="DxjHtmF49w2OF42L33zz-20">
          <mxGeometry y="30" width="360" height="150" as="geometry" />
        </mxCell>
        <mxCell id="DxjHtmF49w2OF42L33zz-25" value="&lt;u&gt;/a: A&lt;/u&gt;" style="html=1;align=center;verticalAlign=middle;rotatable=0;whiteSpace=wrap;" vertex="1" parent="DxjHtmF49w2OF42L33zz-24">
          <mxGeometry width="80" height="40" relative="1" as="geometry">
            <mxPoint x="30" y="20" as="offset" />
          </mxGeometry>
        </mxCell>
        <mxCell id="DxjHtmF49w2OF42L33zz-26" value="&lt;u&gt;/b: B&lt;/u&gt;" style="html=1;align=center;verticalAlign=middle;rotatable=0;whiteSpace=wrap;" vertex="1" parent="DxjHtmF49w2OF42L33zz-24">
          <mxGeometry width="80" height="40" relative="1" as="geometry">
            <mxPoint x="250" y="20" as="offset" />
          </mxGeometry>
        </mxCell>
        <mxCell id="DxjHtmF49w2OF42L33zz-21" style="edgeStyle=orthogonalEdgeStyle;rounded=0;orthogonalLoop=1;jettySize=auto;html=1;exitX=1;exitY=0.5;exitDx=0;exitDy=0;entryX=0;entryY=0.5;entryDx=0;entryDy=0;endArrow=none;endFill=0;" edge="1" parent="DxjHtmF49w2OF42L33zz-24" source="DxjHtmF49w2OF42L33zz-25" target="DxjHtmF49w2OF42L33zz-26">
          <mxGeometry relative="1" as="geometry" />
        </mxCell>
        <mxCell id="DxjHtmF49w2OF42L33zz-29" value="&lt;u&gt;/b: B&lt;/u&gt;" style="html=1;align=center;verticalAlign=middle;rotatable=0;whiteSpace=wrap;" vertex="1" parent="DxjHtmF49w2OF42L33zz-24">
          <mxGeometry width="80" height="40" relative="1" as="geometry">
            <mxPoint x="250" y="90" as="offset" />
          </mxGeometry>
        </mxCell>
        <mxCell id="DxjHtmF49w2OF42L33zz-30" value="&lt;u&gt;/a: A&lt;/u&gt;" style="html=1;align=center;verticalAlign=middle;rotatable=0;whiteSpace=wrap;" vertex="1" parent="DxjHtmF49w2OF42L33zz-24">
          <mxGeometry width="80" height="40" relative="1" as="geometry">
            <mxPoint x="30" y="90" as="offset" />
          </mxGeometry>
        </mxCell>
        <mxCell id="DxjHtmF49w2OF42L33zz-31" style="edgeStyle=orthogonalEdgeStyle;rounded=0;orthogonalLoop=1;jettySize=auto;html=1;exitX=1;exitY=0.5;exitDx=0;exitDy=0;entryX=0;entryY=0.5;entryDx=0;entryDy=0;endArrow=none;endFill=0;" edge="1" source="DxjHtmF49w2OF42L33zz-30" target="DxjHtmF49w2OF42L33zz-29" parent="DxjHtmF49w2OF42L33zz-24">
          <mxGeometry relative="1" as="geometry" />
        </mxCell>
        <mxCell id="DxjHtmF49w2OF42L33zz-33" style="rounded=0;orthogonalLoop=1;jettySize=auto;html=1;exitX=1;exitY=0.25;exitDx=0;exitDy=0;entryX=0;entryY=0.75;entryDx=0;entryDy=0;endArrow=none;endFill=0;" edge="1" parent="DxjHtmF49w2OF42L33zz-20" source="DxjHtmF49w2OF42L33zz-30" target="DxjHtmF49w2OF42L33zz-26">
          <mxGeometry relative="1" as="geometry" />
        </mxCell>
        <mxCell id="DxjHtmF49w2OF42L33zz-34" value="Figure 11.6 &quot;Star&quot; Connector pattern" style="text;html=1;align=center;verticalAlign=middle;resizable=0;points=[];autosize=1;strokeColor=none;fillColor=none;" vertex="1" parent="1">
          <mxGeometry y="360" width="220" height="30" as="geometry" />
        </mxCell>
      </root>
    </mxGraphModel>
  </diagram>
</mxfile>
